<svg width="98" height="25" viewBox="0 0 98 25" fill="none" xmlns="http://www.w3.org/2000/svg">
<path d="M39.2 9.14667H71.4992L80.6458 0H38.3425C26.705 0 23.5608 1.38833 17.2317 7.39084C11.0658 13.475 0 24.5 0 24.5H13.8017C16.9458 21.4375 22.785 15.8025 25.4392 13.2708C29.1958 9.71833 31.0333 9.14667 39.2 9.14667ZM83.2592 0L58.7592 24.5H73.5L98 0H83.2592ZM69.9883 10.6575H40.3433C31.2783 10.6575 29.7267 11.1475 25.8475 15.0267C22.2133 18.6608 16.3333 24.5 16.3333 24.5H29.1958L32.2583 21.4375C34.2592 19.4367 35.3208 19.1917 39.5267 19.1917H61.4542L69.9883 10.6575Z" fill="white"/>
</svg>
